<svg width="17" height="13" viewBox="0 0 17 13" fill="none" xmlns="http://www.w3.org/2000/svg">
<path d="M10.8333 11.25V9.58333H14.1667V11.25H10.8333ZM10.8333 4.58333V2.91667H16.6667V4.58333H10.8333ZM10.8333 7.91667V6.25H15.8333V7.91667H10.8333ZM0.833333 2.91667H0V1.25H3.33333V0H6.66667V1.25H10V2.91667H9.16667V10.4167C9.16667 10.875 9.00347 11.2674 8.67708 11.5938C8.35069 11.9201 7.95833 12.0833 7.5 12.0833H2.5C2.04167 12.0833 1.64931 11.9201 1.32292 11.5938C0.996528 11.2674 0.833333 10.875 0.833333 10.4167V2.91667ZM2.5 2.91667V10.4167H7.5V2.91667H2.5ZM2.5 2.91667V10.4167V2.91667Z" fill="#BA1A1A"/>
</svg>
